<?xml version="1.0" encoding="utf-8"?>
<svg xmlns="http://www.w3.org/2000/svg" viewBox="49.002 245.734 306.588 83.299" xmlns:bx="https://boxy-svg.com" width="306.588px" height="83.299px"><defs><bx:export><bx:file format="svg"/></bx:export></defs><svg xmlns="http://www.w3.org/2000/svg" id="_vvv_1" viewBox="0 0 144.75999450683594 144.75999450683594" height="82" width="82" y="246.5" x="50" preserveAspectRatio="xMinYMin" style="overflow: visible;"><circle class="cls-2" cx="72.38" cy="72.38" r="72.38" style="fill: #d62c27;"/><path class="cls-1" d="m72.38,28.54c-24.21,0-43.84,19.63-43.84,43.84,0,12.15,4.94,23.14,12.93,31.08l-6.36,31.28,26.18-19.94c3.54.92,7.26,1.42,11.09,1.42,24.21,0,43.84-19.63,43.84-43.84s-19.63-43.84-43.84-43.84Zm19.4,44.88l-29.61,18.62c-.68.43-1.56-.06-1.56-.86v-37.25c0-.8.88-1.28,1.56-.86l29.61,18.62c.63.4.63,1.32,0,1.72Z" style="fill: #ffffff; fill-opacity: 1;"/></svg><svg y="265.405029296875" viewBox="1.8899999856948853 18.290000915527344 197.35000610351562 44.189998626708984" x="157.01" height="44.189998626708984" width="197.35000610351562" style="overflow: visible;"><g fill="#d62c27" fill-opacity="1" style=""><path d="M1.89 20.77L32.10 20.77L32.10 27.44L21.12 27.44L21.12 61.95L12.86 61.95L12.86 27.44L1.89 27.44L1.89 20.77ZM60.65 29.26L68.97 29.26L68.97 61.95L60.65 61.95L60.65 57.82Q59.06 59.94 56.49 61.15Q53.93 62.36 50.92 62.36L50.92 62.36Q47.08 62.36 44.13 60.74Q41.18 59.12 39.50 55.96Q37.82 52.80 37.82 48.44L37.82 48.44L37.82 29.26L46.08 29.26L46.08 47.26Q46.08 51.15 48.03 53.25Q49.97 55.34 53.34 55.34L53.34 55.34Q56.76 55.34 58.70 53.25Q60.65 51.15 60.65 47.26L60.65 47.26L60.65 29.26ZM85.37 34.04Q86.97 31.68 89.77 30.21Q92.57 28.73 96.17 28.73L96.17 28.73Q100.36 28.73 103.75 30.80Q107.14 32.86 109.12 36.67Q111.10 40.47 111.10 45.49L111.10 45.49Q111.10 50.50 109.12 54.37Q107.14 58.23 103.75 60.36Q100.36 62.48 96.17 62.48L96.17 62.48Q92.51 62.48 89.77 61.04Q87.03 59.59 85.37 57.29L85.37 57.29L85.37 61.95L77.11 61.95L77.11 18.29L85.37 18.29L85.37 34.04ZM102.66 45.49Q102.66 42.54 101.45 40.39Q100.24 38.23 98.26 37.11Q96.29 35.99 93.99 35.99L93.99 35.99Q91.75 35.99 89.77 37.14Q87.79 38.29 86.58 40.47Q85.37 42.66 85.37 45.61L85.37 45.61Q85.37 48.56 86.58 50.74Q87.79 52.92 89.77 54.07Q91.75 55.22 93.99 55.22L93.99 55.22Q96.29 55.22 98.26 54.04Q100.24 52.86 101.45 50.68Q102.66 48.50 102.66 45.49L102.66 45.49ZM114.99 45.49Q114.99 40.53 116.97 36.70Q118.94 32.86 122.34 30.80Q125.73 28.73 129.92 28.73L129.92 28.73Q133.58 28.73 136.32 30.21Q139.06 31.68 140.72 33.92L140.72 33.92L140.72 29.26L149.03 29.26L149.03 61.95L140.72 61.95L140.72 57.17Q139.12 59.47 136.32 60.98Q133.52 62.48 129.86 62.48L129.86 62.48Q125.73 62.48 122.34 60.36Q118.94 58.23 116.97 54.37Q114.99 50.50 114.99 45.49L114.99 45.49ZM140.72 45.61Q140.72 42.60 139.54 40.44Q138.36 38.29 136.35 37.14Q134.34 35.99 132.04 35.99L132.04 35.99Q129.74 35.99 127.79 37.11Q125.85 38.23 124.64 40.39Q123.43 42.54 123.43 45.49L123.43 45.49Q123.43 48.44 124.64 50.65Q125.85 52.86 127.82 54.04Q129.80 55.22 132.04 55.22L132.04 55.22Q134.34 55.22 136.35 54.07Q138.36 52.92 139.54 50.77Q140.72 48.62 140.72 45.61L140.72 45.61ZM165.38 34.34Q166.97 31.74 169.54 30.27Q172.10 28.79 175.41 28.79L175.41 28.79L175.41 37.47L173.22 37.47Q169.33 37.47 167.35 39.29Q165.38 41.12 165.38 45.67L165.38 45.67L165.38 61.95L157.12 61.95L157.12 29.26L165.38 29.26L165.38 34.34ZM189.21 34.34Q190.81 31.74 193.37 30.27Q195.94 28.79 199.24 28.79L199.24 28.79L199.24 37.47L197.06 37.47Q193.17 37.47 191.19 39.29Q189.21 41.12 189.21 45.67L189.21 45.67L189.21 61.95L180.95 61.95L180.95 29.26L189.21 29.26L189.21 34.34Z" transform="translate(0, 0)"/></g></svg></svg>