<?xml version="1.0" encoding="UTF-8" standalone="no"?>
<svg
   viewBox="49.002 245.734 207.35 54.189997"
   width="207.35001"
   height="54.189999"
   version="1.1"
   id="svg15"
   sodipodi:docname="logo-small.svg"
   inkscape:version="1.1.2 (0a00cf5339, 2022-02-04)"
   inkscape:export-filename="/home/calum/Desktop/logo.png"
   inkscape:export-xdpi="96"
   inkscape:export-ydpi="96"
   xmlns:inkscape="http://www.inkscape.org/namespaces/inkscape"
   xmlns:sodipodi="http://sodipodi.sourceforge.net/DTD/sodipodi-0.dtd"
   xmlns="http://www.w3.org/2000/svg"
   xmlns:svg="http://www.w3.org/2000/svg"
   xmlns:bx="https://boxy-svg.com">
  <sodipodi:namedview
     id="namedview17"
     pagecolor="#505050"
     bordercolor="#ffffff"
     borderopacity="1"
     inkscape:pageshadow="0"
     inkscape:pageopacity="0"
     inkscape:pagecheckerboard="1"
     showgrid="false"
     inkscape:object-nodes="true"
     inkscape:zoom="0.73803985"
     inkscape:cx="327.89557"
     inkscape:cy="139.55886"
     inkscape:window-width="1920"
     inkscape:window-height="1123"
     inkscape:window-x="0"
     inkscape:window-y="0"
     inkscape:window-maximized="1"
     inkscape:current-layer="svg15"
     fit-margin-top="5"
     fit-margin-left="5"
     fit-margin-right="5"
     fit-margin-bottom="5"
     lock-margins="true" />
  <defs
     id="defs2">
    <bx:export>
      <bx:file
         format="svg" />
    </bx:export>
  </defs>
  <g
     id="g1343"
     transform="translate(2.5,2.5)"
     inkscape:export-filename="/home/calum/Desktop/logo.png"
     inkscape:export-xdpi="96"
     inkscape:export-ydpi="96">
    <ellipse
       class="cls-2"
       style="fill:#d62c27;stroke-width:0.128819"
       id="circle4"
       cy="275.3855"
       cx="181.7182"
       rx="8.9452553"
       ry="9.7189713" />
    <path
       class="cls-1"
       d="m 181.56526,265.20394 c -5.6287,0 -10.19258,4.56388 -10.19258,10.19258 0,2.82482 1.14853,5.37993 3.00616,7.22594 l 2.04525,1.88281 2.5628,0.75369 c 0.82304,0.21389 1.68791,0.33013 2.57837,0.33013 5.6287,0 10.19257,-4.56387 10.19257,-10.19257 0,-5.6287 -4.56387,-10.19258 -10.19257,-10.19258 z m 4.5104,10.43437 -6.88417,4.32906 c -0.15811,0.1 -0.36269,-0.0139 -0.36269,-0.19995 v -8.66043 c 0,-0.18599 0.20458,-0.2976 0.36269,-0.19995 l 6.88417,4.32905 c 0.14647,0.093 0.14647,0.3069 0,0.3999 z"
       style="fill:#ffffff;fill-opacity:1;stroke-width:0.23249"
       id="path6"
       sodipodi:nodetypes="sscccsssccsscccc" />
    <g
       fill="#d62c27"
       fill-opacity="1"
       id="g11"
       transform="translate(49.612,229.944)">
      <path
         d="M 1.89,20.77 H 32.1 v 6.67 H 21.12 V 61.95 H 12.86 V 27.44 H 1.89 Z m 58.76,8.49 h 8.32 v 32.69 h -8.32 v -4.13 q -1.59,2.12 -4.16,3.33 -2.56,1.21 -5.57,1.21 v 0 q -3.84,0 -6.79,-1.62 -2.95,-1.62 -4.63,-4.78 -1.68,-3.16 -1.68,-7.52 v 0 -19.18 h 8.26 v 18 q 0,3.89 1.95,5.99 1.94,2.09 5.31,2.09 v 0 q 3.42,0 5.36,-2.09 1.95,-2.1 1.95,-5.99 v 0 z m 24.72,4.78 q 1.6,-2.36 4.4,-3.83 2.8,-1.48 6.4,-1.48 v 0 q 4.19,0 7.58,2.07 3.39,2.06 5.37,5.87 1.98,3.8 1.98,8.82 v 0 q 0,5.01 -1.98,8.88 -1.98,3.86 -5.37,5.99 -3.39,2.12 -7.58,2.12 v 0 q -3.66,0 -6.4,-1.44 -2.74,-1.45 -4.4,-3.75 v 0 4.66 H 77.11 V 18.29 h 8.26 z m 17.29,11.45 q 0,-2.95 -1.21,-5.1 -1.21,-2.16 -3.19,-3.28 -1.97,-1.12 -4.27,-1.12 v 0 q -2.24,0 -4.22,1.15 -1.98,1.15 -3.19,3.33 -1.21,2.19 -1.21,5.14 v 0 q 0,2.95 1.21,5.13 1.21,2.18 3.19,3.33 1.98,1.15 4.22,1.15 v 0 q 2.3,0 4.27,-1.18 1.98,-1.18 3.19,-3.36 1.21,-2.18 1.21,-5.19 z m 12.33,0 q 0,-4.96 1.98,-8.79 1.97,-3.84 5.37,-5.9 3.39,-2.07 7.58,-2.07 v 0 q 3.66,0 6.4,1.48 2.74,1.47 4.4,3.71 v 0 -4.66 h 8.31 v 32.69 h -8.31 v -4.78 q -1.6,2.3 -4.4,3.81 -2.8,1.5 -6.46,1.5 v 0 q -4.13,0 -7.52,-2.12 -3.4,-2.13 -5.37,-5.99 -1.98,-3.87 -1.98,-8.88 z m 25.73,0.12 q 0,-3.01 -1.18,-5.17 -1.18,-2.15 -3.19,-3.3 -2.01,-1.15 -4.31,-1.15 v 0 q -2.3,0 -4.25,1.12 -1.94,1.12 -3.15,3.28 -1.21,2.15 -1.21,5.1 v 0 q 0,2.95 1.21,5.16 1.21,2.21 3.18,3.39 1.98,1.18 4.22,1.18 v 0 q 2.3,0 4.31,-1.15 2.01,-1.15 3.19,-3.3 1.18,-2.15 1.18,-5.16 z m 24.66,-11.27 q 1.59,-2.6 4.16,-4.07 2.56,-1.48 5.87,-1.48 v 0 8.68 h -2.19 q -3.89,0 -5.87,1.82 -1.97,1.83 -1.97,6.38 v 0 16.28 h -8.26 V 29.26 h 8.26 z m 23.83,0 q 1.6,-2.6 4.16,-4.07 2.57,-1.48 5.87,-1.48 v 0 8.68 h -2.18 q -3.89,0 -5.87,1.82 -1.98,1.83 -1.98,6.38 v 0 16.28 h -8.26 V 29.26 h 8.26 z"
         id="path9" />
    </g>
  </g>
</svg>
