<?xml version="1.0" encoding="utf-8"?>
<svg xmlns="http://www.w3.org/2000/svg" viewBox="12.6992 321.3278 46.4493 46.4493" width="46.4493px" height="46.4493px" xmlns:bx="https://boxy-svg.com"><defs><bx:export><bx:file format="svg"/></bx:export></defs><svg xmlns="http://www.w3.org/2000/svg" id="_vvv_1" viewBox="0 0 144.75999450683594 144.75999450683594" height="82" width="82" y="246.5" x="50" preserveAspectRatio="xMinYMin" style="overflow: visible;" transform="matrix(0.5664548432690618, 0, 0, 0.5664548432690618, -15.623581299317514, 181.69672357587177)"><circle class="cls-2" cx="72.38" cy="72.38" r="72.38" style="fill: #d62c27;"/><path class="cls-1" d="m72.38,28.54c-24.21,0-43.84,19.63-43.84,43.84,0,12.15,4.94,23.14,12.93,31.08l-6.36,31.28,26.18-19.94c3.54.92,7.26,1.42,11.09,1.42,24.21,0,43.84-19.63,43.84-43.84s-19.63-43.84-43.84-43.84Zm19.4,44.88l-29.61,18.62c-.68.43-1.56-.06-1.56-.86v-37.25c0-.8.88-1.28,1.56-.86l29.61,18.62c.63.4.63,1.32,0,1.72Z" style="fill: #ffffff; fill-opacity: 1;"/></svg></svg>